<?xml version="1.0" encoding="UTF-8" standalone="no"?>
<svg width="99px" height="99px" viewBox="0 0 99 99" version="1.1" xmlns="http://www.w3.org/2000/svg" xmlns:xlink="http://www.w3.org/1999/xlink">
    <!-- Generator: Sketch 45.1 (43504) - http://www.bohemiancoding.com/sketch -->
    <title>icon_setting_base</title>
    <desc>Created with Sketch.</desc>
    <defs></defs>
    <g id="web" stroke="none" stroke-width="1" fill="none" fill-rule="evenodd">
        <g id="Artboard" transform="translate(-143.000000, -84.000000)" fill-rule="nonzero" fill="#041123">
            <g id="icon_setting_base" transform="translate(143.000000, 84.000000)">
                <path d="M33.4178581,0.561514296 L27.043379,3.19932564 C23.6349841,4.60964061 22.0218507,8.55329916 23.4268379,11.9485019 L25.0659896,15.9182774 C21.865741,18.2949193 19.0817848,21.1155492 16.6881029,24.3279333 L12.733324,22.6825659 C11.0941723,22.0035253 9.27289256,22.0035253 7.63374081,22.6825659 C5.99458905,23.3616064 4.69367496,24.6674536 4.01719963,26.3128211 L1.36333489,32.7114723 C-0.0416523296,36.132792 1.57148114,40.0503336 4.97987606,41.4606486 L10.8339895,43.8895244 C12.1609218,44.4379802 13.6439639,43.8111735 14.1903478,42.4792094 C14.7367317,41.1472452 14.112293,39.6585794 12.7853606,39.1101236 L6.9312472,36.6812478 C6.15069874,36.3678445 5.7864428,35.4537515 6.09866218,34.6702431 L8.75252693,28.2715919 C8.90863662,27.9059546 9.19483772,27.5925513 9.58511195,27.4358497 C9.94936789,27.279148 10.3656604,27.279148 10.7559346,27.4358497 L16.610048,29.8647254 C17.7548524,30.3348304 19.0557665,29.9430763 19.7322419,28.9245155 C22.3600883,24.95474 25.6904284,21.6117711 29.6452072,18.9739598 C30.6599202,18.2949193 31.0762127,16.9629551 30.6078837,15.8399265 L28.1881834,9.96361413 C27.8759641,9.18010581 28.24022,8.29212972 29.0207685,7.95260944 L35.3952475,5.3147981 C35.7595035,5.15809644 36.175796,5.15809644 36.5660702,5.3147981 C36.9303261,5.47149977 37.2425455,5.75878615 37.3986552,6.15054031 L39.8183554,12.0268527 C40.2866845,13.1759982 41.4835255,13.8289218 42.7063847,13.5677524 C47.3376389,12.6275424 52.0729662,12.6536594 56.7042203,13.5677524 C57.9010613,13.8028049 59.1239205,13.1498813 59.5922496,12.0268527 L62.0119498,6.15054031 C62.3241692,5.36703199 63.2348091,5.00139477 64.0153575,5.3147981 L70.3898366,7.97872639 C70.7540925,8.13542805 71.0663119,8.42271444 71.2224216,8.8144686 C71.3785313,9.18010581 71.3785313,9.59797691 71.2224216,9.98973107 L68.8027214,15.8660435 C68.3343923,17.015189 68.7246665,18.3210362 69.7393795,19.0000767 C73.6941584,21.6378881 77.0244984,24.9808569 79.6523449,28.9506324 C80.3288202,29.9691932 81.6557526,30.3870643 82.7745387,29.9169593 L88.6286521,27.4880835 C89.0189264,27.3313819 89.4092006,27.3313819 89.7994748,27.4880835 C90.1637308,27.6447852 90.4759501,27.9320716 90.6320598,28.3238258 L93.2599063,34.722477 C93.416016,35.0881142 93.416016,35.5059853 93.2599063,35.8977395 C93.1037966,36.2633767 92.8175955,36.5767801 92.4273213,36.7334817 L86.5732079,39.1623575 C85.4284035,39.6324625 84.8039647,40.8338419 85.0381292,42.0613383 C85.9747874,46.7101543 85.9487691,51.4634381 85.0381292,56.1122542 C84.8039647,57.3136336 85.4544217,58.5411299 86.5732079,59.0112349 L92.4273213,61.4401107 C93.2078697,61.7535141 93.5721257,62.6676071 93.2599063,63.4511154 L90.6060415,69.8497667 C90.2938222,70.633275 89.3831823,70.9989122 88.6026338,70.6855089 L82.7485204,68.2566331 C81.603716,67.7865281 80.3028019,68.1782823 79.6263266,69.1968431 C76.9984802,73.1666186 73.6681401,76.5095874 69.7133612,79.1473987 C68.6986483,79.8264393 68.2823557,81.1584034 68.7506848,82.281432 L71.170385,88.1577444 C71.3264947,88.5233816 71.3264947,88.9412527 71.170385,89.3330069 C71.0142753,89.6986441 70.7280742,90.0120474 70.3378,90.1687491 L63.963321,92.8065605 C63.599065,92.9632621 63.1827725,92.9632621 62.7924983,92.8065605 C62.4282423,92.6498588 62.1160229,92.3625724 61.9599133,91.9708182 L59.540213,86.0945058 C58.9938291,84.7625417 57.4847688,84.1357351 56.1838547,84.6841909 C54.8569223,85.2326467 54.2324836,86.7474294 54.7788675,88.0532766 L57.1985677,93.929589 C57.875043,95.5749565 59.1759571,96.8808037 60.8151089,97.5598443 C61.6476939,97.8993645 62.5062972,98.0821831 63.3649005,98.0821831 C64.2235038,98.0821831 65.1081254,97.8993645 65.9146921,97.5598443 L72.2891711,94.9220329 C73.9283229,94.2429924 75.229237,92.9371452 75.9057123,91.2917777 C76.5821876,89.6464102 76.5821876,87.8182242 75.9057123,86.1728567 L74.2665606,82.2030812 C77.4668092,79.8264393 80.2507654,77.0058093 82.6444473,73.7934252 L86.5992261,75.4387927 C90.0076211,76.8491077 93.9103633,75.2298572 95.3153506,71.8085375 L97.9692153,65.4098862 C99.3742025,61.9885666 97.761069,58.071025 94.3526741,56.66071 L90.3978953,55.0153425 C90.9702975,51.071684 90.9702975,47.0757915 90.3978953,43.132133 L94.3526741,41.4867655 C95.9918259,40.807725 97.29274,39.5018778 97.9692153,37.8565103 C98.6456906,36.2111428 98.6456906,34.3829568 97.9692153,32.7375893 L95.3413688,26.338938 C94.6648935,24.6935705 93.3639794,23.3877233 91.7248277,22.7086828 C90.0856759,22.0296423 88.2643962,22.0296423 86.6252444,22.7086828 L82.6704656,24.3540503 C80.3028019,21.1416662 77.4928275,18.3210362 74.3185971,15.9443943 L75.9577489,11.9746188 C76.6342242,10.3292513 76.6342242,8.50106527 75.9577489,6.8556978 C75.2812736,5.21033033 73.9803595,3.90448313 72.3412077,3.22544258 L65.9667287,0.561514296 C62.5583337,-0.84880068 58.6555915,0.770449848 57.2506042,4.19176951 L55.6114525,8.161545 C51.6826919,7.58697223 47.7018948,7.58697223 43.7731343,8.161545 L42.1339825,4.19176951 C41.4575072,2.54640204 40.1565931,1.24055484 38.5174413,0.561514296 C36.8782896,-0.117526248 35.0570099,-0.117526248 33.4178581,0.561514296 Z" id="Shape"></path>
                <path d="M70.6240011,48.9039776 C70.5459463,37.3602884 61.1533465,28.0365394 49.6792842,28.0365394 C49.6272477,28.0365394 49.5752111,28.0365394 49.5231745,28.0365394 C43.929244,28.0887733 38.673551,30.3087135 34.7447905,34.3046059 C30.8160299,38.3004984 28.6825308,43.602238 28.7085491,49.2173809 C28.7085491,50.6276959 29.8793718,51.7768415 31.284359,51.7768415 C32.7413828,51.7768415 33.8861872,50.601579 33.8601689,49.1651471 C33.8341506,44.9342021 35.4472841,40.9383097 38.4133682,37.9087442 C41.3794523,34.8791787 45.3342312,33.2076943 49.5491928,33.1815773 C58.3173538,33.1815773 65.3943265,40.2331522 65.446363,48.9300946 C65.4983996,57.6792708 58.4734635,64.8353134 49.7573391,64.9136643 C48.3263336,64.9136643 47.1815292,66.0889268 47.2075475,67.5253587 C47.2075475,68.9356737 48.3783701,70.0848192 49.7833574,70.0848192 C61.3875111,70.0064684 70.702056,60.4999007 70.6240011,48.9039776 Z" id="Shape"></path>
            </g>
        </g>
    </g>
</svg>