<?xml version="1.0" encoding="UTF-8" standalone="no"?>
<svg width="139px" height="125px" viewBox="0 0 139 125" version="1.1" xmlns="http://www.w3.org/2000/svg" xmlns:xlink="http://www.w3.org/1999/xlink">
    <!-- Generator: Sketch 45.1 (43504) - http://www.bohemiancoding.com/sketch -->
    <title>icon_search_base</title>
    <desc>Created with Sketch.</desc>
    <defs></defs>
    <g id="web" stroke="none" stroke-width="1" fill="none" fill-rule="evenodd">
        <g id="Artboard" transform="translate(-445.000000, -87.000000)" fill-rule="nonzero">
            <g id="icon_search_base" transform="translate(445.000000, 87.000000)">
                <path d="M136.21817,0.146619652 L2.2089433,0.146619652 C0.988723022,0.146619652 0,1.13131724 0,2.34591443 L0,122.574029 C0,123.788626 0.988723022,124.773324 2.2089433,124.773324 L136.21817,124.773324 C137.438391,124.773324 138.427114,123.788626 138.427114,122.574029 L138.427114,99.1148848 C138.427114,97.9002876 137.438391,96.9155901 136.21817,96.9155901 C134.99795,96.9155901 134.009227,97.9002876 134.009227,99.1148848 L134.009227,120.374734 L4.4178866,120.374734 L4.4178866,22.1395675 L134.009227,22.1395675 L134.009227,90.3177057 C134.009227,91.5323029 134.99795,92.5170005 136.21817,92.5170005 C137.438391,92.5170005 138.427114,91.5323029 138.427114,90.3177057 L138.427114,2.34591443 C138.427114,1.13131724 137.438391,0.146619652 136.21817,0.146619652 Z M4.4178866,4.54520922 L86.1487887,4.54520922 L86.1487887,17.7409779 L4.4178866,17.7409779 L4.4178866,4.54520922 Z M90.5666753,17.7409779 L90.5666753,4.54520922 L134.009227,4.54520922 L134.009227,17.7409779 L90.5666753,17.7409779 Z" id="Shape" fill="#041123"></path>
                <path d="M112.361583,8.79717913 C111.062429,8.79717913 110.005376,9.84961499 110.005376,11.1430936 C110.005376,12.4365721 111.062429,13.489008 112.361583,13.489008 C113.660736,13.489008 114.717789,12.4365721 114.717789,11.1430936 C114.717789,9.84961499 113.660736,8.79717913 112.361583,8.79717913 Z" id="Shape" fill="#000000"></path>
                <path d="M100.286026,8.79717913 C98.9868727,8.79717913 97.9298197,9.84961499 97.9298197,11.1430936 C97.9298197,12.4365721 98.9868727,13.489008 100.286026,13.489008 C101.585179,13.489008 102.642232,12.4365721 102.642232,11.1430936 C102.642232,9.84961499 101.585179,8.79717913 100.286026,8.79717913 Z" id="Shape" fill="#000000"></path>
                <path d="M124.437139,8.79717913 C123.137986,8.79717913 122.080933,9.84961499 122.080933,11.1430936 C122.080933,12.4365721 123.137986,13.489008 124.437139,13.489008 C125.736292,13.489008 126.793345,12.4365721 126.793345,11.1430936 C126.793345,9.84961499 125.736292,8.79717913 124.437139,8.79717913 Z" id="Shape" fill="#000000"></path>
            </g>
        </g>
    </g>
</svg>