<?xml version="1.0" encoding="UTF-8" standalone="no"?>
<svg width="77px" height="77px" viewBox="0 0 77 77" version="1.1" xmlns="http://www.w3.org/2000/svg" xmlns:xlink="http://www.w3.org/1999/xlink">
    <!-- Generator: Sketch 45.1 (43504) - http://www.bohemiancoding.com/sketch -->
    <title>icon_search_point</title>
    <desc>Created with Sketch.</desc>
    <defs></defs>
    <g id="web" stroke="none" stroke-width="1" fill="none" fill-rule="evenodd">
        <g id="Artboard" transform="translate(-476.000000, -120.000000)" fill-rule="nonzero" fill="#FFCE00">
            <g id="icon_search_point" transform="translate(476.000000, 120.000000)">
                <path d="M48.4468548,56.8655307 C48.4468548,57.4487837 48.6795301,58.0082843 49.0936334,58.4205787 L66.3360557,75.5873941 C66.7504535,75.9999818 67.3121141,76.2316408 67.8982204,76.2316408 C68.4843267,76.2316408 69.0456928,75.9999818 69.4603851,75.5873941 L75.7081604,69.3669087 C76.5708263,68.5080108 76.5708263,67.1154173 75.7081604,66.2568127 L58.4660325,49.0899973 C57.6033665,48.2310994 56.2049582,48.2310994 55.3419976,49.0899973 L53.7801275,50.6450453 L50.5901188,47.4689704 C60.2576328,36.2484617 59.7645967,19.2801694 49.0942224,8.65640261 C43.6702358,3.25610758 36.4590667,0.282367795 28.788732,0.282367795 C21.1183973,0.282367795 13.9072283,3.25640082 8.48324161,8.65640261 C-2.71315566,19.8038948 -2.71315566,37.9425052 8.48324161,49.0899973 C13.9072283,54.4902923 21.1183973,57.4640321 28.788732,57.4640321 C35.7180399,57.4640321 42.2721219,55.0363039 47.472858,50.5861042 L50.6557981,53.7554346 L49.0939279,55.3104827 C48.6795301,55.7230704 48.4468548,56.2822777 48.4468548,56.8655307 L48.4468548,56.8655307 Z M11.606982,45.979608 C2.13297141,36.5469793 2.13297141,21.1991274 11.606982,11.7664987 C16.1962826,7.19724383 22.2982675,4.68066412 28.7884375,4.68066412 C35.2786074,4.68066412 41.3805924,7.19724383 45.969893,11.7664987 C55.4439036,21.1991274 55.4439036,36.5469793 45.969893,45.979608 C41.3805924,50.5488629 35.2786074,53.0654426 28.7884375,53.0654426 C22.2982675,53.0654426 16.1962826,50.5488629 11.606982,45.979608 Z M71.0222553,67.8121539 L67.8985149,70.9225432 L53.7798329,56.8658239 L55.3411141,55.3113624 C55.3425867,55.3098962 56.9038678,53.7554346 56.9038678,53.7554346 L71.0222553,67.8121539 L71.0222553,67.8121539 Z" id="Shape"></path>
                <path d="M42.8461527,14.8771812 C39.090949,11.1386733 34.0987372,9.07954692 28.7884375,9.07954692 C23.4781378,9.07954692 18.4859259,11.1383801 14.7307223,14.8771812 C6.97968754,22.5946532 6.97968754,35.1520399 14.7307223,42.869512 C18.4859259,46.6080198 23.4781378,48.6671462 28.7884375,48.6671462 C34.0987372,48.6671462 39.090949,46.6083131 42.8461527,42.869512 C50.597482,35.1520399 50.597482,22.59436 42.8461527,14.8771812 L42.8461527,14.8771812 Z M39.7221178,39.7591227 C36.8016002,42.6668836 32.9185724,44.2682634 28.7884375,44.2682634 C24.6583026,44.2682634 20.7752748,42.6668836 17.8547572,39.7591227 C11.8258146,33.7565141 11.8258146,23.9898858 17.8547572,17.9872773 C20.7752748,15.0795163 24.6583026,13.4781365 28.7884375,13.4781365 C32.9185724,13.4781365 36.8016002,15.0795163 39.7221178,17.9872773 C45.7510604,23.9898858 45.7510604,33.7565141 39.7221178,39.7591227 Z" id="Shape"></path>
            </g>
        </g>
    </g>
</svg>