<?xml version="1.0" encoding="UTF-8" standalone="no"?>
<svg width="76px" height="76px" viewBox="0 0 76 76" version="1.1" xmlns="http://www.w3.org/2000/svg" xmlns:xlink="http://www.w3.org/1999/xlink">
    <!-- Generator: Sketch 45.1 (43504) - http://www.bohemiancoding.com/sketch -->
    <title>icon_setting_point</title>
    <desc>Created with Sketch.</desc>
    <defs></defs>
    <g id="web" stroke="none" stroke-width="1" fill="none" fill-rule="evenodd">
        <g id="Artboard" transform="translate(-114.000000, -135.000000)" fill-rule="nonzero" fill="#FFCE00">
            <g id="icon_setting_point" transform="translate(114.000000, 135.000000)">
                <path d="M35.2027353,75.8630554 L40.2242637,75.8630554 C43.294421,75.8630554 45.792176,73.3558288 45.792176,70.2740294 L45.792176,67.6884519 C48.2899311,67.0094114 50.683613,66.0169675 52.9211852,64.7111203 L54.742465,66.5393064 C55.7831962,67.5839842 57.1881834,68.1846739 58.6712255,68.1846739 C60.1542676,68.1846739 61.5592548,67.6101011 62.5999861,66.5393064 L66.1384724,62.987402 C67.1792037,61.9427243 67.7776242,60.5324093 67.7776242,59.0437435 C67.7776242,57.5550777 67.205222,56.1447627 66.1384724,55.1000849 L64.3171927,53.2718989 C65.6181068,51.0258417 66.6068015,48.6230828 67.2832768,46.1158562 L69.8590867,46.1158562 C72.929244,46.1158562 75.426999,43.6086296 75.426999,40.5268302 L75.426999,35.48626 C75.426999,32.4044606 72.929244,29.897234 69.8590867,29.897234 L67.2832768,29.897234 C66.6068015,27.3900074 65.6181068,24.9872485 64.3171927,22.7411913 L66.1384724,20.9130053 C67.1792037,19.8683275 67.7776242,18.4580125 67.7776242,16.9693467 C67.7776242,15.4806809 67.205222,14.0703659 66.1384724,13.0256882 L62.5999861,9.4737838 C61.5592548,8.42910604 60.1542676,7.82841633 58.6712255,7.82841633 C57.1881834,7.82841633 55.7831962,8.4029891 54.742465,9.4737838 L52.9211852,11.3019699 C50.683613,9.99612268 48.2899311,9.00367881 45.792176,8.32463826 L45.792176,5.73906081 C45.792176,2.65726142 43.294421,0.150034796 40.2242637,0.150034796 L35.2027353,0.150034796 C32.1325781,0.150034796 29.634823,2.65726142 29.634823,5.73906081 L29.634823,8.32463826 C27.1370679,9.00367881 24.743386,9.99612268 22.5058138,11.3019699 L20.6845341,9.4737838 C19.6438028,8.42910604 18.2388156,7.82841633 16.7557735,7.82841633 C15.2727314,7.82841633 13.8677442,8.4029891 12.8270129,9.4737838 L9.28852661,13.0256882 C7.12900922,15.1933945 7.12900922,18.7452989 9.28852661,20.9130053 L11.1098063,22.7411913 C9.80889225,24.9872485 8.82019754,27.3900074 8.14372221,29.897234 L5.56791231,29.897234 C2.49775506,29.897234 0,32.4044606 0,35.48626 L0,40.5268302 C0,43.6086296 2.49775506,46.1158562 5.56791231,46.1158562 L8.14372221,46.1158562 C8.82019754,48.6230828 9.80889225,51.0258417 11.1098063,53.2718989 L9.28852661,55.1000849 C7.12900922,57.2677913 7.12900922,60.8196957 9.28852661,62.987402 L12.8270129,66.5393064 C13.8677442,67.5839842 15.2727314,68.1846739 16.7557735,68.1846739 C18.2388156,68.1846739 19.6438028,67.6101011 20.6845341,66.5393064 L22.5058138,64.7111203 C24.743386,66.0169675 27.1370679,67.0094114 29.634823,67.6884519 L29.634823,70.2740294 C29.6608413,73.3558288 32.1585963,75.8630554 35.2027353,75.8630554 Z M23.5725633,59.3049129 C23.1302525,59.0176265 22.6359052,58.8609249 22.1415578,58.8609249 C21.4650825,58.8609249 20.8146255,59.1220943 20.3202781,59.6183163 L17.0679929,62.8829342 C16.9639197,62.987402 16.8598466,63.013519 16.7817918,63.013519 C16.7037369,63.013519 16.5996638,62.987402 16.4955907,62.8829342 L12.9571043,59.3310299 C12.8009947,59.1743282 12.8009947,58.9131588 12.9571043,58.7564571 L16.2093896,55.4918391 C17.0679929,54.62998 17.2241026,53.2457819 16.521609,52.2272211 C14.6482927,49.4327081 13.3733969,46.3247918 12.7229398,43.0340568 C12.4887753,41.8326774 11.4220257,40.9447013 10.1991665,40.9447013 L5.59393059,40.9447013 C5.35976606,40.9447013 5.17763808,40.7618827 5.17763808,40.5268302 L5.17763808,35.48626 C5.17763808,35.2512075 5.35976606,35.0683889 5.59393059,35.0683889 L10.1991665,35.0683889 C11.4220257,35.0683889 12.4887753,34.2065298 12.7229398,32.9790334 C13.3733969,29.6882984 14.6482927,26.5803821 16.521609,23.7858691 C17.1980843,22.7673083 17.0679929,21.3831103 16.2093896,20.5212511 L12.9571043,17.2566331 C12.8009947,17.0999314 12.8009947,16.838762 12.9571043,16.6820603 L16.4955907,13.130156 C16.5996638,13.0256882 16.7037369,12.9995712 16.7817918,12.9995712 C16.8598466,12.9995712 16.9639197,13.0256882 17.0679929,13.130156 L20.3202781,16.4470078 C21.1788814,17.308867 22.5578503,17.4655687 23.5725633,16.7604112 C26.3565195,14.8799912 29.452695,13.6002609 32.7309985,12.9473373 C33.9278395,12.7122849 34.8124611,11.6414901 34.8124611,10.4139938 L34.8124611,5.7912947 C34.8124611,5.5562422 34.9945891,5.37342359 35.2287536,5.37342359 L40.250282,5.37342359 C40.4844465,5.37342359 40.6665745,5.5562422 40.6665745,5.7912947 L40.6665745,10.4139938 C40.6665745,11.6414901 41.5251778,12.7122849 42.748037,12.9473373 C46.0263405,13.6002609 49.1225161,14.8799912 51.9064722,16.7604112 C52.9211852,17.4394517 54.3001542,17.308867 55.1587575,16.4470078 L58.4110427,13.1823898 C58.5151158,13.0779221 58.619189,13.0518051 58.6972438,13.0518051 C58.7752986,13.0518051 58.8793718,13.0779221 58.9834449,13.1823898 L62.5219312,16.7342942 C62.6260044,16.838762 62.6520226,16.9432298 62.6520226,17.0215806 C62.6520226,17.0999314 62.6260044,17.2043992 62.5219312,17.308867 L59.269646,20.573485 C58.4110427,21.4353441 58.254933,22.8195422 58.9574266,23.838103 C60.8307429,26.632616 62.1056387,29.7405323 62.7560958,33.0312673 C62.9902603,34.2326467 64.0570099,35.1206228 65.2798691,35.1206228 L69.885105,35.1206228 C70.1192695,35.1206228 70.3013975,35.3034414 70.3013975,35.5384939 L70.3013975,40.5790641 C70.3013975,40.8141166 70.1192695,40.9969352 69.885105,40.9969352 L65.2798691,40.9969352 C64.0570099,40.9969352 62.9902603,41.8587943 62.7560958,43.0862907 C62.1056387,46.3770257 60.8307429,49.484942 58.9574266,52.279455 C58.2809513,53.2980158 58.4110427,54.6822138 59.269646,55.544073 L62.5219312,58.808691 C62.6260044,58.9131588 62.6520226,59.0176265 62.6520226,59.0959774 C62.6520226,59.1743282 62.6260044,59.278796 62.5219312,59.3832638 L58.9834449,62.9351681 C58.8793718,63.0396359 58.7752986,63.0657529 58.6972438,63.0657529 C58.619189,63.0657529 58.5151158,63.0396359 58.4110427,62.9351681 L55.1587575,59.6705501 C54.3001542,58.808691 52.9211852,58.6519893 51.9064722,59.3571468 C49.1225161,61.2375668 46.0263405,62.517297 42.748037,63.1702206 C41.5511961,63.4052731 40.6665745,64.4760678 40.6665745,65.7035642 L40.6665745,70.3262633 C40.6665745,70.5613158 40.4844465,70.7441344 40.250282,70.7441344 L35.2287536,70.7441344 C34.9945891,70.7441344 34.8124611,70.5613158 34.8124611,70.3262633 L34.8124611,65.7035642 C34.8124611,64.4760678 33.9538578,63.4052731 32.7309985,63.1702206 C29.452695,62.4650631 26.3565195,61.1853329 23.5725633,59.3049129 Z" id="Shape"></path>
                <path d="M52.9992401,38.0457205 C52.9992401,29.5838307 46.1304137,22.6889575 37.7004904,22.6889575 C29.2705671,22.6889575 22.4277589,29.5838307 22.4277589,38.0457205 C22.4277589,46.5076104 29.2965853,53.4024836 37.7265086,53.4024836 C46.156432,53.4024836 52.9992401,46.5076104 52.9992401,38.0457205 Z M27.5793787,38.0457205 C27.5793787,32.4305776 32.1325781,27.8601124 37.7265086,27.8601124 C43.3204392,27.8601124 47.8736386,32.4305776 47.8736386,38.0457205 C47.8736386,43.6608635 43.3204392,48.2313287 37.7265086,48.2313287 C32.1325781,48.2313287 27.5793787,43.6347465 27.5793787,38.0457205 Z" id="Shape"></path>
            </g>
        </g>
    </g>
</svg>