<?xml version="1.0" encoding="UTF-8" standalone="no"?>
<svg width="245px" height="72px" viewBox="0 0 245 72" version="1.1" xmlns="http://www.w3.org/2000/svg" xmlns:xlink="http://www.w3.org/1999/xlink">
    <!-- Generator: Sketch 45.1 (43504) - http://www.bohemiancoding.com/sketch -->
    <title>icon_push_base</title>
    <desc>Created with Sketch.</desc>
    <defs></defs>
    <g id="web" stroke="none" stroke-width="1" fill="none" fill-rule="evenodd">
        <g id="Artboard" transform="translate(-728.000000, -125.000000)" fill="#041123">
            <g id="icon_push_base" transform="translate(728.000000, 125.000000)">
                <g id="github-logo" transform="translate(151.000000, 0.000000)" fill-rule="nonzero">
                    <path d="M68.245935,0.0939987039 C69.4611071,2.85313365 70.2483724,7.43576915 69.073706,10.7909686 C73.877271,14.891768 75.5286587,24.8607915 73.2094456,33.0073529 C80.0559538,33.5296882 88.2111088,32.7560505 93.4747774,34.8568145 C88.5538497,34.2244045 81.8330132,32.9834688 75.4860758,33.4154598 C74.283367,33.4974966 72.5021532,33.3697685 72.5893963,35.0613871 C79.9365138,35.6377213 87.2379325,36.2659775 93.2701715,38.1486691 C87.2867471,37.1714971 80.0237569,35.6823742 72.5893963,35.4757247 C69.5182305,41.5350218 63.3374705,44.5132676 54.8053006,45.1404853 C55.722392,47.1363669 57.4786792,47.8954665 57.9076246,51.1052844 C58.5474075,55.9008001 56.9064059,62.9237694 58.5255967,66.1200876 C59.302476,67.6517865 60.5685399,67.6922857 61.4222762,69.0017585 C59.3325956,71.474284 54.1520158,68.7234566 53.562086,66.1200876 C52.5515198,61.659988 55.101304,54.7460548 52.3240646,51.7221177 C52.519323,56.5872089 51.1732862,63.4191053 52.5307477,67.7649765 C53.0656311,69.4742487 54.6100422,70.133658 54.1852512,71.6757413 C44.4721833,72.6612209 48.5321044,59.1064642 46.9440718,51.1042459 C45.478595,51.2091284 46.1225324,53.2984695 46.1173393,54.1904895 C46.075795,62.0037116 47.7167966,72.7204119 39.2936806,71.6757413 C39.0475303,70.0329293 40.4236868,69.4752871 40.9481841,67.9757798 C42.4842863,63.5800635 40.6604896,57.0285458 41.3646662,51.7231561 C38.1501725,54.146875 41.702214,62.6060068 39.7101626,66.9435705 C38.5625001,69.4399801 34.8640147,70.5261883 32.0587328,69.4119423 C32.4243231,67.5531347 34.3436718,67.8532439 35.157941,66.1211261 C36.2962561,63.7077916 35.1662499,60.2290178 35.5723458,56.6598997 C29.622157,57.847875 25.0065802,56.4875186 22.7476064,52.7512117 C21.7370402,51.0741312 21.4867355,49.0959031 20.2653317,47.6098955 C19.0501596,46.1228495 17.1079615,45.9224306 16.5450356,43.909934 C23.9139639,42.1362785 24.1964654,51.4926225 30.8144797,51.7231561 C32.8439209,51.7968854 33.8991473,51.1385145 35.7769517,50.6971775 C36.3024877,48.3378419 37.4273009,46.5776862 39.0859589,45.3460964 C30.850831,44.2193891 24.0500216,41.6554808 20.8874583,35.4767631 C13.4011673,35.8443709 6.55050468,36.8443885 0.20564451,38.3542802 C5.96472941,36.2628622 13.0677739,35.5131085 20.6818138,35.2669983 C20.2331349,32.5712081 16.299924,33.3126543 13.8581551,33.4164983 C9.3194353,33.6158787 3.6070878,34.1797516 0,34.8568145 C5.22835588,32.9928148 12.5650873,33.2254253 19.6483982,33.2108872 C17.4818606,26.4194899 18.2327746,15.6311372 22.9574053,11.6134131 C21.6186388,8.23952167 22.0340822,2.72125178 23.7841378,0.0939987039 C29.0592311,0.330763013 32.2581457,2.6309075 35.5723458,4.82616956 C39.6821202,3.65792461 44.0037708,3.07639824 49.6351068,3.38585335 C52.0031345,3.51669678 54.4656756,4.58109773 56.2500052,4.41287046 C58.0000608,4.24879694 59.928757,2.285107 61.6279207,1.53535335 C63.8411957,0.558181362 65.7138071,0.185381419 68.245935,0.0939987039 Z" id="Github__x28_alt_x29_"></path>
                </g>
                <path d="M8.83124644,41.7687254 C8.83124644,40.3225216 0.924521661,40.3225216 0.924521661,33.9588839 C0.924521661,30.632466 4.14581189,27.4506472 9.27042496,27.4506472 C13.6555167,27.4506472 16.2165277,29.6524769 16.9536739,30.3927472 C17.0894868,30.5290287 17.1089194,30.7386759 17.0054944,30.9001236 L14.6465832,34.5792949 C14.5161684,34.7827573 14.2397925,34.8350091 14.0452498,34.6899835 C13.4329046,34.2331529 12.0890269,33.3802745 10.5883924,33.3802745 C9.85642815,33.3802745 9.4168178,33.8142849 9.4168178,34.248082 C9.4168178,35.6942858 17.3237585,35.6942858 17.3237585,42.0579235 C17.3237585,45.3843414 14.1022523,48.5661602 8.9778552,48.5661602 C3.58010505,48.5661602 0.854564021,46.1297302 0.112451646,45.3393408 C-0.0173154581,45.2013532 -0.0369640546,44.9961846 0.0649495448,44.8368697 L2.42990644,41.1489542 C2.56118497,40.9439989 2.83993594,40.895586 3.03620599,41.0414647 C3.7429077,41.5673957 5.45147192,42.6363196 7.65967188,42.6363196 C8.39206792,42.6363196 8.83124644,42.2025225 8.83124644,41.7687254 Z M27.9758888,42.3473135 L35.9255814,42.3473135 C36.1563984,42.3473135 36.343384,42.5320079 36.343384,42.7599966 L36.343384,47.7194453 C36.343384,47.9476474 36.1563984,48.1323417 35.9255814,48.1323417 L20.3621656,48.1323417 C20.1313486,48.1323417 19.9443631,47.9476474 19.9443631,47.7194453 L19.9443631,28.2973194 C19.9443631,28.0693306 20.1313486,27.8846363 20.3621656,27.8846363 L35.3395782,27.8846363 C35.5703952,27.8846363 35.7575967,28.0693306 35.7575967,28.2973194 L35.7575967,33.2567681 C35.7575967,33.4847569 35.5703952,33.6696645 35.3395782,33.6696645 L27.9758888,33.6696645 C27.7450718,33.6696645 27.5580862,33.8543589 27.5580862,34.0823476 L27.5580862,34.7031851 C27.5580862,34.9311739 27.7450718,35.1158682 27.9758888,35.1158682 L34.7540068,35.1158682 C34.9848239,35.1158682 35.1718094,35.3005626 35.1718094,35.5285514 L35.1718094,40.4882134 C35.1718094,40.7164154 34.9848239,40.9011098 34.7540068,40.9011098 L27.9758888,40.9011098 C27.7450718,40.9011098 27.5580862,41.0858041 27.5580862,41.3135796 L27.5580862,41.9344171 C27.5580862,42.1624059 27.7450718,42.3473135 27.9758888,42.3473135 Z M47.0424118,40.7763024 L47.0424118,47.719616 C47.0424118,47.9476047 46.8552104,48.1322991 46.6246092,48.1322991 L39.8464912,48.1322991 C39.6156742,48.1322991 39.4284727,47.9476047 39.4284727,47.719616 L39.4284727,28.2972767 C39.4284727,28.069288 39.6156742,27.8845936 39.8464912,27.8845936 L47.673542,27.8845936 C47.8259806,27.8845936 47.9665436,27.9667037 48.0399559,28.0989329 L52.1152044,35.4389341 C52.3231341,35.8134413 52.899205,35.6675627 52.899205,35.240377 L52.899205,28.2972767 C52.899205,28.069288 53.0866224,27.8845936 53.3172235,27.8845936 L60.0955574,27.8845936 C60.3261586,27.8845936 60.5131441,28.069288 60.5131441,28.2972767 L60.5131441,47.719616 C60.5131441,47.9476047 60.3261586,48.1322991 60.0955574,48.1322991 L52.2682907,48.1322991 C52.1158522,48.1322991 51.9752891,48.0499757 51.9018768,47.9179598 L47.8266283,40.5777453 C47.6186987,40.2032381 47.0424118,40.3491168 47.0424118,40.7763024 Z M73.1423119,20 C75.2449276,20 76.9493894,21.6835765 76.9493894,23.760215 L76.9493894,39.1653454 C76.9493894,45.2395717 73.1423119,49 68.7498789,49 C65.7177334,49 63.80016,47.8990851 63.1450628,47.4507854 C62.9926242,47.346495 62.929576,47.1560422 62.9883059,46.9820115 L64.78734,41.6518945 C64.8652866,41.4204933 65.1280596,41.3046861 65.3528309,41.4055642 C65.7203245,41.5699976 66.3063276,41.768768 66.9929489,41.768768 C68.3104845,41.768768 69.3354503,40.7563614 69.3354503,39.1653454 L69.3354503,23.760215 C69.3354503,21.6835765 71.0399121,20 73.1423119,20 Z M92.3860609,38.7314629 L92.3860609,28.2972981 C92.3860609,28.0693093 92.5730464,27.8846149 92.8040794,27.8846149 L99.5819815,27.8846149 C99.8127985,27.8846149 100,28.0693093 100,28.2972981 L100,38.172048 C100,44.8895055 93.5591469,49.9707331 87.0070957,48.170283 C82.8180581,47.019249 80.0869032,43.4535389 80.0869032,38.7314629 L80.0869032,28.2972981 C80.0869032,28.0693093 80.2738887,27.8846149 80.5047058,27.8846149 L87.2828238,27.8846149 C87.5136408,27.8846149 87.7006264,28.0693093 87.7006264,28.2972981 L87.7006264,38.7314629 C87.7006264,40.322479 88.7253762,41.3348856 90.0433436,41.3348856 C91.3610951,41.3348856 92.3860609,40.322479 92.3860609,38.7314629 Z" id="Combined-Shape"></path>
            </g>
        </g>
    </g>
</svg>